<svg width="20" height="20" viewBox="0 0 20 20" fill="none" xmlns="http://www.w3.org/2000/svg">
<path d="M17.2273 1.25621L4.72882 0.382224C3.22163 0.276831 1.91458 1.41303 1.80918 2.92022L0.935172 15.4192C0.829808 16.9259 1.96601 18.233 3.4732 18.3384L15.9717 19.2124C17.4789 19.3177 18.786 18.1815 18.8913 16.6748L19.7653 4.17584C19.8707 2.66865 18.7345 1.3616 17.2273 1.25621ZM7.77775 16.8241L5.47332 16.6629L5.99168 9.25004L8.29611 9.41118L7.77775 16.8241ZM8.63691 7.22541C8.62929 7.26873 8.62003 7.31153 8.60828 7.35415C8.59653 7.39676 8.58317 7.43844 8.56735 7.47952C8.55153 7.5206 8.53408 7.56115 8.51421 7.60027C8.49474 7.63985 8.47327 7.67802 8.44976 7.71564C8.42627 7.75285 8.40118 7.7891 8.3741 7.82397C8.34746 7.85844 8.3188 7.89194 8.28816 7.92405C8.25834 7.95622 8.22656 7.98657 8.19323 8.01515C8.15988 8.04415 8.12539 8.07139 8.08978 8.09689C8.05375 8.12235 8.01658 8.14607 7.97829 8.16804C7.94 8.19 7.90102 8.20983 7.86049 8.22788C7.82041 8.24555 7.7792 8.26146 7.73769 8.27568C7.69621 8.28949 7.6536 8.30155 7.61074 8.31108C7.56786 8.32103 7.52429 8.32885 7.4809 8.33417C7.43706 8.33987 7.39295 8.34347 7.34901 8.34457C7.30508 8.34568 7.26129 8.34471 7.21723 8.34162C7.17317 8.33854 7.12967 8.33341 7.08632 8.3262C7.04296 8.319 6.99978 8.30929 6.95716 8.29754C6.91493 8.28624 6.87329 8.27246 6.83179 8.25661C6.79068 8.24121 6.75058 8.22337 6.71101 8.20389C6.67146 8.184 6.63328 8.16253 6.59605 8.13946C6.55885 8.11598 6.52259 8.09089 6.48773 8.06381C6.45287 8.03672 6.41937 8.00807 6.38765 7.97786C6.35551 7.94763 6.32515 7.91585 6.29616 7.8825C6.26713 7.84956 6.2403 7.8151 6.21442 7.77904C6.18937 7.74304 6.16566 7.70588 6.14366 7.668C6.12169 7.6297 6.10189 7.59031 6.08381 7.5502C6.06576 7.50967 6.04982 7.46888 6.03604 7.42698C6.02182 7.38547 6.01018 7.34289 6.00023 7.30001C5.99028 7.25712 5.98285 7.214 5.97714 7.17016C5.97144 7.12632 5.96823 7.08265 5.96712 7.03872C5.9656 6.99476 5.9666 6.95055 5.96968 6.90649C5.97277 6.86243 5.9779 6.81893 5.98552 6.77561C5.99273 6.73225 6.00199 6.68946 6.01374 6.64684C6.02546 6.60464 6.03885 6.56255 6.05467 6.52147C6.07049 6.48039 6.08794 6.43984 6.10783 6.4003C6.12728 6.36114 6.14875 6.32296 6.17223 6.28576C6.19575 6.24814 6.22081 6.2123 6.24789 6.17744C6.27497 6.14257 6.30363 6.10907 6.33345 6.07691C6.36407 6.04522 6.39543 6.01483 6.42878 5.98583C6.46214 5.95684 6.49662 5.92959 6.53266 5.90413C6.56827 5.87863 6.60543 5.85492 6.6437 5.83337C6.68199 5.8114 6.72141 5.79118 6.76152 5.7731C6.80163 5.75502 6.8424 5.7395 6.88433 5.7253C6.92625 5.71111 6.96842 5.69944 7.0113 5.68949C7.05457 5.67998 7.09773 5.67214 7.14115 5.66641C7.18496 5.66112 7.22907 5.65752 7.27301 5.65641C7.31697 5.65489 7.36076 5.65587 7.40482 5.65895C7.44888 5.66203 7.49238 5.66716 7.5357 5.67478C7.57906 5.68199 7.62224 5.69169 7.66488 5.70303C7.70709 5.71475 7.74914 5.72855 7.79025 5.74396C7.83133 5.75978 7.87188 5.77723 7.91101 5.7971C7.95014 5.81696 7.98876 5.83804 8.02597 5.86152C8.06358 5.88504 8.0994 5.91052 8.13426 5.9376C8.16915 5.96426 8.20265 5.99292 8.23479 6.02315C8.26651 6.05336 8.29687 6.08514 8.32586 6.11849C8.35486 6.15184 8.3821 6.18633 8.40718 6.22192C8.43306 6.25798 8.45678 6.29514 8.47833 6.3334C8.5003 6.3717 8.52013 6.41068 8.53818 6.4512C8.55626 6.49131 8.5722 6.53211 8.58601 6.57359C8.6002 6.61552 8.61184 6.6581 8.62179 6.70098C8.63174 6.74386 8.63914 6.7874 8.64487 6.83083C8.65058 6.87467 8.65379 6.91833 8.65531 6.9623C8.65642 7.00623 8.65542 7.05044 8.65236 7.09408C8.64931 7.13773 8.64412 7.18206 8.63691 7.22541ZM16.6909 13.1802L16.394 17.4266L14.097 17.266C14.097 17.266 14.3576 13.4326 14.3728 13.2148C14.388 12.997 14.3226 12.4758 14.3226 12.4758C14.1193 11.5293 13.1731 11.6272 13.1731 11.6272C12.3756 11.5752 12.079 12.1731 12.079 12.1731C11.7905 12.6554 11.7578 13.6192 11.7578 13.6192L11.5154 17.0854L9.22716 16.9254L9.74552 9.51253L11.939 9.66591L11.8674 10.6889C11.8972 10.6813 11.9172 10.6694 11.9172 10.6694C13.3385 8.80726 15.6314 10.0356 15.6314 10.0356C17.0253 10.7931 16.6909 13.1802 16.6909 13.1802Z" fill="#0E1013"/>
</svg>
